<svg width="50" height="49" viewBox="0 0 50 49" fill="none" xmlns="http://www.w3.org/2000/svg">
<path d="M3.81494 36.7505C3.81758 38.0363 4.09175 39.307 4.6195 40.4794C5.14726 41.6519 5.9167 42.6996 6.87744 43.5541V47.4693C6.87744 47.8754 7.03877 48.2649 7.32593 48.5521C7.6131 48.8392 8.00258 49.0005 8.40869 49.0005H11.4712C11.8773 49.0005 12.2668 48.8392 12.5539 48.5521C12.8411 48.2649 13.0024 47.8754 13.0024 47.4693V45.938H37.5024V47.4693C37.5024 47.8754 37.6638 48.2649 37.9509 48.5521C38.2381 48.8392 38.6276 49.0005 39.0337 49.0005H42.0962C42.5023 49.0005 42.8918 48.8392 43.179 48.5521C43.4661 48.2649 43.6274 47.8754 43.6274 47.4693V43.5541C44.5882 42.6996 45.3576 41.6519 45.8854 40.4794C46.4131 39.307 46.6873 38.0363 46.6899 36.7505V32.1568H3.81494V36.7505ZM48.2212 24.5005H8.40869V6.62799C8.40956 6.2261 8.52943 5.83347 8.75318 5.49963C8.97693 5.16579 9.29454 4.90568 9.66593 4.75213C10.0373 4.59857 10.4459 4.55845 10.8401 4.63681C11.2342 4.71517 11.5964 4.90851 11.8808 5.19244L13.725 7.03569C12.4684 9.8953 12.9967 12.6927 14.55 14.6661L14.5337 14.6824C14.2476 14.9694 14.087 15.3581 14.087 15.7633C14.087 16.1686 14.2476 16.5573 14.5337 16.8443L15.6161 17.9267C15.7583 18.0689 15.9271 18.1818 16.1129 18.2587C16.2987 18.3357 16.4979 18.3753 16.699 18.3753C16.9001 18.3753 17.0992 18.3357 17.285 18.2587C17.4708 18.1818 17.6397 18.0689 17.7819 17.9267L27.8661 7.84246C28.0083 7.70027 28.1211 7.53145 28.1981 7.34565C28.2751 7.15985 28.3147 6.9607 28.3147 6.75958C28.3147 6.55847 28.2751 6.35932 28.1981 6.17352C28.1211 5.98772 28.0083 5.8189 27.8661 5.6767L26.7837 4.5943C26.4966 4.30735 26.1072 4.14616 25.7013 4.14616C25.2954 4.14616 24.906 4.30735 24.6189 4.5943L24.6026 4.61057C22.6292 3.05731 19.8337 2.52903 16.9722 3.78561L15.129 1.94141C14.2021 1.01443 13.0212 0.383144 11.7355 0.127377C10.4498 -0.128389 9.11717 0.00285715 7.9061 0.504518C6.69502 1.00618 5.65992 1.85572 4.93169 2.9457C4.20347 4.03567 3.81483 5.31713 3.81494 6.62799V24.5005H2.28369C1.87758 24.5005 1.4881 24.6619 1.20093 24.949C0.913769 25.2362 0.752441 25.6257 0.752441 26.0318L0.752441 27.563C0.752441 27.9692 0.913769 28.3586 1.20093 28.6458C1.4881 28.933 1.87758 29.0943 2.28369 29.0943H48.2212C48.6273 29.0943 49.0168 28.933 49.304 28.6458C49.5911 28.3586 49.7524 27.9692 49.7524 27.563V26.0318C49.7524 25.6257 49.5911 25.2362 49.304 24.949C49.0168 24.6619 48.6273 24.5005 48.2212 24.5005Z" fill="#BEA23C"/>
</svg>
