<svg width="53" height="52" viewBox="0 0 53 52" fill="none" xmlns="http://www.w3.org/2000/svg">
<path d="M26.7526 4.33362C14.8056 4.33362 5.08594 14.0533 5.08594 26.0003C5.08594 37.9473 14.8056 47.6669 26.7526 47.6669C38.6996 47.6669 48.4193 37.9473 48.4193 26.0003C48.4193 14.0533 38.6996 4.33362 26.7526 4.33362ZM26.7526 43.3336C17.1954 43.3336 9.41927 35.5574 9.41927 26.0003C9.41927 16.4431 17.1954 8.66695 26.7526 8.66695C36.3098 8.66695 44.0859 16.4431 44.0859 26.0003C44.0859 35.5574 36.3098 43.3336 26.7526 43.3336Z" fill="#BEA23C"/>
<path d="M28.9193 15.1655H24.5859V26.8959L31.7208 34.0307L34.7844 30.967L28.9193 25.1019V15.1655Z" fill="#BEA23C"/>
</svg>
