<svg width="18" height="18" viewBox="0 0 18 18" fill="none" xmlns="http://www.w3.org/2000/svg">
<path d="M10.8223 14.115C10.6798 14.115 10.5373 14.0625 10.4248 13.95C10.2073 13.7325 10.2073 13.3725 10.4248 13.155L14.5798 8.99997L10.4248 4.84497C10.2073 4.62747 10.2073 4.26747 10.4248 4.04997C10.6423 3.83247 11.0023 3.83247 11.2198 4.04997L15.7723 8.60247C15.9898 8.81997 15.9898 9.17997 15.7723 9.39747L11.2198 13.95C11.1073 14.0625 10.9648 14.115 10.8223 14.115Z" fill="#1A1229"/>
<path d="M15.2475 9.5625H2.625C2.3175 9.5625 2.0625 9.3075 2.0625 9C2.0625 8.6925 2.3175 8.4375 2.625 8.4375H15.2475C15.555 8.4375 15.81 8.6925 15.81 9C15.81 9.3075 15.555 9.5625 15.2475 9.5625Z" fill="#1A1229"/>
</svg>
