<svg width="34" height="34" viewBox="0 0 34 34" fill="none" xmlns="http://www.w3.org/2000/svg">
<rect x="0.220703" y="0.723633" width="33.0894" height="33.0894" fill="#015911"/>
<path fill-rule="evenodd" clip-rule="evenodd" d="M5.31055 16.8547C5.31055 11.3733 10.3487 6.8324 16.7198 6.8324C23.105 6.8324 28.2186 11.3835 28.2186 16.8547C28.2186 22.3227 23.1086 26.8769 16.7198 26.8769C15.2397 26.8769 13.8056 26.6333 12.4502 26.1521C11.0798 27.4671 9.23641 28.2132 7.32395 28.2132C6.72641 28.2132 6.42848 27.4917 6.84941 27.0726C7.85625 26.0702 8.26201 24.6164 7.92779 23.2444C6.23863 21.452 5.31055 19.1897 5.31055 16.8547ZM12.5247 24.7521C13.8444 25.2753 15.2558 25.5496 16.7198 25.5496C22.3201 25.5496 26.8852 21.6441 26.8852 16.8547C26.8852 12.0652 22.3201 8.15982 16.7198 8.15982C11.1689 8.15982 6.64386 12.0652 6.64386 16.8547C6.64386 18.8964 7.49137 20.8807 9.01399 22.4421C9.0913 22.5214 9.14768 22.6185 9.17801 22.7247C9.56302 24.0723 9.40137 25.4947 8.76889 26.7014C9.9168 26.4187 10.9706 25.8037 11.7813 24.9218C11.9696 24.7169 12.2655 24.6494 12.5247 24.7521Z" fill="white"/>
<path fill-rule="evenodd" clip-rule="evenodd" d="M9.38281 17.0137C9.38281 15.8909 10.2963 14.9774 11.4191 14.9774C12.5419 14.9774 13.4553 15.8909 13.4553 17.0137C13.4553 18.1365 12.5419 19.05 11.4191 19.05C10.2963 19.05 9.38281 18.1365 9.38281 17.0137ZM10.7403 17.0137C10.7403 17.388 11.0448 17.6925 11.4191 17.6925C11.7933 17.6925 12.0978 17.388 12.0978 17.0137C12.0978 16.6394 11.7933 16.335 11.4191 16.335C11.0448 16.335 10.7403 16.6394 10.7403 17.0137Z" fill="white"/>
<path fill-rule="evenodd" clip-rule="evenodd" d="M14.4746 17.0137C14.4746 15.8909 15.3881 14.9774 16.5109 14.9774C17.6337 14.9774 18.5471 15.8909 18.5471 17.0137C18.5471 18.1365 17.6337 19.05 16.5109 19.05C15.3881 19.05 14.4746 18.1365 14.4746 17.0137ZM15.8321 17.0137C15.8321 17.388 16.1366 17.6925 16.5109 17.6925C16.8851 17.6925 17.1896 17.388 17.1896 17.0137C17.1896 16.6394 16.8851 16.335 16.5109 16.335C16.1366 16.335 15.8321 16.6394 15.8321 17.0137Z" fill="white"/>
<path fill-rule="evenodd" clip-rule="evenodd" d="M20.0742 17.0137C20.0742 15.8909 20.9877 14.9774 22.1105 14.9774C23.2333 14.9774 24.1468 15.8909 24.1468 17.0137C24.1468 18.1365 23.2333 19.05 22.1105 19.05C20.9877 19.05 20.0742 18.1365 20.0742 17.0137ZM21.4317 17.0137C21.4317 17.388 21.7362 17.6925 22.1105 17.6925C22.4848 17.6925 22.7892 17.388 22.7892 17.0137C22.7892 16.6394 22.4848 16.335 22.1105 16.335C21.7362 16.335 21.4317 16.6394 21.4317 17.0137Z" fill="white"/>
</svg>
