<svg width="25" height="25" viewBox="0 0 25 25" fill="none" xmlns="http://www.w3.org/2000/svg">
<path d="M21.875 8.07227H3.125C2.69792 8.07227 2.34375 7.7181 2.34375 7.29102C2.34375 6.86393 2.69792 6.50977 3.125 6.50977H21.875C22.3021 6.50977 22.6562 6.86393 22.6562 7.29102C22.6562 7.7181 22.3021 8.07227 21.875 8.07227Z" fill="#EFEFEF"/>
<path d="M21.875 13.2812H3.125C2.69792 13.2812 2.34375 12.9271 2.34375 12.5C2.34375 12.0729 2.69792 11.7188 3.125 11.7188H21.875C22.3021 11.7188 22.6562 12.0729 22.6562 12.5C22.6562 12.9271 22.3021 13.2812 21.875 13.2812Z" fill="#EFEFEF"/>
<path d="M21.875 18.4902H3.125C2.69792 18.4902 2.34375 18.1361 2.34375 17.709C2.34375 17.2819 2.69792 16.9277 3.125 16.9277H21.875C22.3021 16.9277 22.6562 17.2819 22.6562 17.709C22.6562 18.1361 22.3021 18.4902 21.875 18.4902Z" fill="#EFEFEF"/>
</svg>
