<svg width="35" height="35" viewBox="0 0 35 35" fill="none" xmlns="http://www.w3.org/2000/svg">
<circle opacity="0.4" cx="17.5" cy="17.5" r="17.5" fill="black"/>
<path d="M21.7018 26.6328L21.7019 26.6329L21.708 26.6268C22.0957 26.2391 22.0957 25.6009 21.708 25.2132L15.188 18.6932C14.8057 18.3109 14.8057 17.6891 15.188 17.3068L21.708 10.7868C22.0957 10.3991 22.0957 9.76085 21.708 9.37322C21.3204 8.98559 20.6821 8.98559 20.2945 9.37322L13.7745 15.8932C12.6168 17.0509 12.6168 18.9491 13.7745 20.1068L20.2945 26.6268C20.4938 26.8261 20.7485 26.92 21.0013 26.92C21.2613 26.92 21.5107 26.8111 21.7018 26.6328Z" fill="white" stroke="white" stroke-width="0.5"/>
</svg>
