<svg width="35" height="35" viewBox="0 0 35 35" fill="none" xmlns="http://www.w3.org/2000/svg">
<circle opacity="0.4" cx="17.5" cy="17.5" r="17.5" transform="matrix(-1 0 0 1 35 0)" fill="black"/>
<path d="M13.2982 26.6328L13.2981 26.6329L13.292 26.6268C12.9043 26.2391 12.9043 25.6009 13.292 25.2132L19.812 18.6932C20.1943 18.3109 20.1943 17.6891 19.812 17.3068L13.292 10.7868C12.9043 10.3991 12.9043 9.76085 13.292 9.37322C13.6796 8.98559 14.3179 8.98559 14.7055 9.37322L21.2255 15.8932C22.3832 17.0509 22.3832 18.9491 21.2255 20.1068L14.7055 26.6268C14.5062 26.8261 14.2515 26.92 13.9987 26.92C13.7387 26.92 13.4893 26.8111 13.2982 26.6328Z" fill="white" stroke="white" stroke-width="0.5"/>
</svg>
