<svg width="32" height="32" viewBox="0 0 32 32" fill="none" xmlns="http://www.w3.org/2000/svg">
<circle cx="15.9615" cy="15.9615" r="15.9615" fill="#BEA23C"/>
<path d="M16.6283 24.9187C14.3719 24.9187 14.1059 24.9068 13.2254 24.8682C12.5387 24.8457 11.8609 24.7061 11.2212 24.4555C10.6738 24.2424 10.1767 23.9179 9.76139 23.5024C9.3461 23.087 9.02174 22.5897 8.80891 22.0422C8.56796 21.4002 8.438 20.7219 8.42459 20.0363C8.37323 19.1575 8.37323 18.8695 8.37323 16.6306C8.37323 14.3678 8.38515 14.1036 8.42459 13.2276C8.4383 12.5429 8.56825 11.8656 8.80891 11.2244C9.0215 10.6762 9.34607 10.1784 9.76191 9.7627C10.1778 9.34702 10.6757 9.02263 11.224 8.81026C11.8648 8.56829 12.5424 8.43799 13.2272 8.42502C14.1032 8.37549 14.3912 8.37549 16.6283 8.37549C18.903 8.37549 19.1645 8.38741 20.0312 8.42502C20.7173 8.43786 21.3979 8.56811 22.04 8.81026C22.5881 9.02288 23.0859 9.34735 23.5018 9.763C23.9176 10.1786 24.2422 10.6764 24.4551 11.2244C24.7 11.8756 24.8311 12.5636 24.8412 13.2579C24.8926 14.1366 24.8926 14.4237 24.8926 16.6618C24.8926 18.8998 24.8797 19.1933 24.8412 20.0619C24.8275 20.7482 24.6972 21.4271 24.456 22.0698C24.2426 22.6176 23.9176 23.1152 23.5017 23.5308C23.0858 23.9464 22.588 24.271 22.04 24.4839C21.3979 24.7242 20.7201 24.8545 20.0349 24.8682C19.159 24.9187 18.8719 24.9187 16.6283 24.9187V24.9187ZM16.5971 9.82747C14.3536 9.82747 14.1206 9.83847 13.2446 9.87791C12.7215 9.88475 12.2034 9.98124 11.7129 10.1632C11.3551 10.3003 11.03 10.5109 10.7586 10.7814C10.4872 11.0518 10.2755 11.3762 10.1371 11.7335C9.95362 12.2288 9.85731 12.7525 9.85181 13.2808C9.80319 14.1696 9.80319 14.4026 9.80319 16.6306C9.80319 18.8319 9.81145 19.0988 9.85181 19.9821C9.86006 20.505 9.95637 21.0232 10.1371 21.5139C10.4177 22.2358 10.9901 22.8063 11.7138 23.0833C12.2037 23.2664 12.7217 23.3629 13.2446 23.3686C14.1325 23.4199 14.3664 23.4199 16.5971 23.4199C18.8471 23.4199 19.0801 23.4089 19.9487 23.3686C20.4719 23.3622 20.9901 23.2657 21.4805 23.0833C21.8363 22.9451 22.1596 22.7344 22.4296 22.4645C22.6996 22.1946 22.9105 21.8715 23.0489 21.5157C23.2324 21.0204 23.3287 20.4958 23.3342 19.9675H23.3443C23.3837 19.0906 23.3837 18.8567 23.3837 16.6159C23.3837 14.3751 23.3736 14.1394 23.3342 13.2634C23.3259 12.741 23.2295 12.2238 23.0489 11.7335C22.9109 11.3772 22.7001 11.0535 22.43 10.7832C22.16 10.5128 21.8366 10.3017 21.4805 10.1632C20.9902 9.98035 20.4719 9.88384 19.9487 9.87791C19.0617 9.82747 18.8297 9.82747 16.5971 9.82747V9.82747ZM16.6283 20.8673C15.7896 20.8678 14.9695 20.6196 14.2718 20.154C13.5742 19.6885 13.0302 19.0265 12.7089 18.2517C12.3875 17.477 12.303 16.6244 12.4663 15.8017C12.6295 14.979 13.0331 14.2232 13.6259 13.6298C14.2187 13.0365 14.9742 12.6323 15.7967 12.4683C16.6193 12.3044 17.472 12.3881 18.247 12.7088C19.022 13.0295 19.6845 13.5729 20.1507 14.2701C20.6168 14.9674 20.8657 15.7872 20.8659 16.626C20.8645 17.7498 20.4177 18.8271 19.6234 19.6221C18.8291 20.4171 17.7521 20.8648 16.6283 20.8673V20.8673ZM16.6283 13.8725C16.0841 13.8725 15.5521 14.0338 15.0996 14.3362C14.647 14.6386 14.2943 15.0683 14.0861 15.5711C13.8778 16.0739 13.8233 16.6272 13.9295 17.161C14.0357 17.6948 14.2977 18.1851 14.6826 18.5699C15.0674 18.9547 15.5577 19.2168 16.0915 19.323C16.6253 19.4291 17.1785 19.3747 17.6813 19.1664C18.1841 18.9581 18.6139 18.6054 18.9163 18.1529C19.2186 17.7004 19.38 17.1684 19.38 16.6242C19.3783 15.8949 19.0879 15.196 18.5722 14.6803C18.0565 14.1646 17.3576 13.8742 16.6283 13.8725ZM21.031 13.2185C20.9012 13.218 20.7727 13.1919 20.6529 13.1418C20.5331 13.0917 20.4244 13.0184 20.3329 12.9263C20.1482 12.7402 20.0449 12.4883 20.0459 12.226C20.0469 11.9638 20.152 11.7127 20.3381 11.5279C20.5242 11.3432 20.7761 11.2399 21.0384 11.2409C21.3006 11.2419 21.5517 11.347 21.7365 11.5331C21.9212 11.7192 22.0244 11.9711 22.0235 12.2334C22.0225 12.4956 21.9174 12.7467 21.7313 12.9315C21.5452 13.1162 21.2933 13.2194 21.031 13.2185Z" fill="white"/>
</svg>
