<svg width="34" height="34" viewBox="0 0 34 34" fill="none" xmlns="http://www.w3.org/2000/svg">
<rect x="0.220703" y="0.114258" width="33.0894" height="33.0894" fill="#015911"/>
<path fill-rule="evenodd" clip-rule="evenodd" d="M24.5032 19.3349L27.1613 21.9929C27.8941 22.7257 27.8941 23.918 27.1613 24.6508L26.1947 25.6173C23.5456 28.2663 19.2584 28.2661 16.6096 25.6173L8.31196 17.3157C5.66943 14.6733 5.66943 10.3736 8.31208 7.73112L9.28061 6.77103C10.0115 6.0402 11.2039 6.0402 11.9367 6.77295L14.5941 9.42183C15.3346 10.1622 15.3244 11.3509 14.5948 12.0804L13.3866 13.2886C12.83 13.8451 12.8301 14.7457 13.3866 15.3022L18.6234 20.5433C19.1784 21.0981 20.0818 21.0982 20.637 20.5431L21.8452 19.3349C22.5779 18.6022 23.7704 18.6022 24.5032 19.3349ZM11.0514 7.65956C10.8064 7.4146 10.409 7.41465 10.1647 7.6589L9.72395 8.09578L13.2657 11.6374L13.7088 11.1944C13.9536 10.9495 13.9536 10.5533 13.7088 10.3084L11.0514 7.65956ZM17.4958 24.7314L9.19809 16.4298C7.15355 14.3853 7.04117 11.175 8.85248 8.99632L12.384 12.5277C11.456 13.5795 11.4947 15.1824 12.5004 16.188L17.7371 21.4289L17.7372 21.429C18.7418 22.4336 20.3446 22.4748 21.3979 21.5456L24.9294 25.077C22.7576 26.8851 19.5544 26.79 17.4958 24.7314ZM25.8323 24.2078L26.2753 23.7648C26.5196 23.5206 26.5196 23.1231 26.2753 22.8788L23.6172 20.2209C23.3729 19.9766 22.9755 19.9766 22.7312 20.2209L22.2882 20.6639L25.8323 24.2078Z" fill="white"/>
</svg>
