<svg width="32" height="32" viewBox="0 0 32 32" fill="none" xmlns="http://www.w3.org/2000/svg">
<circle cx="15.9615" cy="15.9615" r="15.9615" fill="#BEA23C"/>
<path d="M24.1237 10.9666C23.5261 11.2244 22.8757 11.4099 22.2058 11.4822C22.9013 11.069 23.4222 10.4162 23.6706 9.64625C23.018 10.0345 22.303 10.3068 21.5573 10.4509C21.2457 10.1178 20.8688 9.85238 20.4501 9.67126C20.0314 9.49014 19.5799 9.39719 19.1237 9.3982C17.278 9.3982 15.7937 10.8943 15.7937 12.7302C15.7937 12.988 15.8249 13.2459 15.8757 13.4939C13.112 13.3494 10.6472 12.0291 9.00851 10.0076C8.70993 10.5176 8.55346 11.0983 8.55539 11.6892C8.55539 12.8455 9.14328 13.865 10.0398 14.4646C9.51145 14.4438 8.99551 14.2986 8.53391 14.0408V14.0818C8.53391 15.7009 9.67844 17.0427 11.2038 17.3513C10.9174 17.4257 10.6228 17.4638 10.3269 17.4646C10.1101 17.4646 9.905 17.4431 9.69797 17.4138C10.1198 18.7341 11.3484 19.6931 12.8112 19.7244C11.6667 20.6209 10.2331 21.1482 8.67648 21.1482C8.39719 21.1482 8.13937 21.1384 7.8718 21.1072C9.34836 22.0545 11.1003 22.6013 12.987 22.6013C19.112 22.6013 22.4636 17.5271 22.4636 13.1228C22.4636 12.9783 22.4636 12.8337 22.4538 12.6892C23.1023 12.2146 23.6706 11.6267 24.1237 10.9666Z" fill="white"/>
</svg>
