<svg width="50" height="37" viewBox="0 0 50 37" fill="none" xmlns="http://www.w3.org/2000/svg">
<path d="M14.349 18.5005C17.7262 18.5005 20.474 15.0657 20.474 10.8442C20.474 6.62277 17.7262 3.18799 14.349 3.18799C10.9719 3.18799 8.22402 6.62277 8.22402 10.8442C8.22402 15.0657 10.9719 18.5005 14.349 18.5005ZM41.299 6.25049H24.149C23.4722 6.25049 22.924 6.93572 22.924 7.78174V21.563H5.77402V1.65674C5.77402 0.810723 5.22584 0.125488 4.54902 0.125488H2.09902C1.42221 0.125488 0.874023 0.810723 0.874023 1.65674V35.3442C0.874023 36.1903 1.42221 36.8755 2.09902 36.8755H4.54902C5.22584 36.8755 5.77402 36.1903 5.77402 35.3442V30.7505H44.974V35.3442C44.974 36.1903 45.5222 36.8755 46.199 36.8755H48.649C49.3258 36.8755 49.874 36.1903 49.874 35.3442V16.9692C49.874 11.049 46.0352 6.25049 41.299 6.25049Z" fill="#BEA23C"/>
</svg>
