<svg width="44" height="37" viewBox="0 0 44 37" fill="none" xmlns="http://www.w3.org/2000/svg">
<path d="M43.7045 13.4424L42.5705 11.4209C42.5195 11.3318 42.436 11.2669 42.3383 11.2403C42.2406 11.2138 42.1365 11.2278 42.0489 11.2793L39.6228 12.7246L35.876 2.16797C35.6782 1.53806 35.2893 0.988596 34.7655 0.598916C34.2417 0.209236 33.6101 -0.000496434 32.9619 8.82382e-07H12.2278C10.5673 8.82382e-07 9.09351 1.09375 8.5815 2.70996L5.01177 12.7295L2.58091 11.2842C2.49327 11.2327 2.38923 11.2187 2.2915 11.2452C2.19378 11.2718 2.11031 11.3367 2.05933 11.4258L0.925248 13.4424C0.819974 13.6279 0.882182 13.8623 1.06402 13.9697L3.95425 15.6885L3.2604 17.6416C3.20298 17.7979 3.17427 17.9639 3.17427 18.1299V35.1318C3.17427 35.8984 3.73892 36.5186 4.43277 36.5186H7.66753C8.25611 36.5186 8.76812 36.0645 8.89253 35.4297L9.26099 33.5889H35.3688L35.7373 35.4297C35.8665 36.0645 36.3737 36.5186 36.9623 36.5186H40.197C40.8909 36.5186 41.4555 35.8984 41.4555 35.1318V18.1299C41.4555 17.9639 41.4268 17.7979 41.3694 17.6416L40.6755 15.6885L43.561 13.9697C43.6479 13.9185 43.7116 13.8346 43.7384 13.736C43.7653 13.6374 43.7531 13.5319 43.7045 13.4424ZM10.4477 23.5791C9.39019 23.5791 8.53365 22.7051 8.53365 21.626C8.53365 20.5469 9.39019 19.6729 10.4477 19.6729C11.5052 19.6729 12.3618 20.5469 12.3618 21.626C12.3618 22.7051 11.5052 23.5791 10.4477 23.5791ZM29.0141 27.2412C29.0141 27.4561 28.8419 27.6318 28.6313 27.6318H15.9985C15.7879 27.6318 15.6157 27.4561 15.6157 27.2412V23.1397C15.6157 22.9248 15.7879 22.749 15.9985 22.749H17.9126C18.1231 22.749 18.2954 22.9248 18.2954 23.1397V24.8975H26.3344V23.1397C26.3344 22.9248 26.5067 22.749 26.7172 22.749H28.6313C28.8419 22.749 29.0141 22.9248 29.0141 23.1397V27.2412ZM34.1821 23.5791C33.1246 23.5791 32.268 22.7051 32.268 21.626C32.268 20.5469 33.1246 19.6729 34.1821 19.6729C35.2396 19.6729 36.0961 20.5469 36.0961 21.626C36.0961 22.7051 35.2396 23.5791 34.1821 23.5791ZM8.34224 13.667L11.821 3.90625L11.845 3.84277L11.8641 3.7793C11.9168 3.61816 12.0603 3.51074 12.2278 3.51074H32.6891L36.2971 13.667H8.34224Z" fill="#BEA23C"/>
</svg>
