<svg width="37" height="38" viewBox="0 0 37 38" fill="none" xmlns="http://www.w3.org/2000/svg">
<path d="M1.53125 15.6219C1.12514 15.6219 0.735658 15.4573 0.448493 15.1642C0.161328 14.8712 0 14.4738 0 14.0594V1.5625C0 1.1481 0.161328 0.750672 0.448493 0.457646C0.735658 0.16462 1.12514 0 1.53125 0H13.7812C14.1874 0 14.5768 0.16462 14.864 0.457646C15.1512 0.750672 15.3125 1.1481 15.3125 1.5625V14.0594C15.3125 14.4738 15.1512 14.8712 14.864 15.1642C14.5768 15.4573 14.1874 15.6219 13.7812 15.6219H1.53125ZM22.9687 15.6219C22.5626 15.6219 22.1732 15.4573 21.886 15.1642C21.5988 14.8712 21.4375 14.4738 21.4375 14.0594V1.5625C21.4375 1.1481 21.5988 0.750672 21.886 0.457646C22.1732 0.16462 22.5626 0 22.9687 0H35.2157C35.6218 0 36.0113 0.16462 36.2984 0.457646C36.5856 0.750672 36.7469 1.1481 36.7469 1.5625V14.0594C36.7469 14.4738 36.5856 14.8712 36.2984 15.1642C36.0113 15.4573 35.6218 15.6219 35.2157 15.6219H22.9687ZM1.53125 37.4969C1.12514 37.4969 0.735658 37.3323 0.448493 37.0392C0.161328 36.7462 0 36.3488 0 35.9344V23.4344C0 23.02 0.161328 22.6225 0.448493 22.3295C0.735658 22.0365 1.12514 21.8719 1.53125 21.8719H13.7812C14.1874 21.8719 14.5768 22.0365 14.864 22.3295C15.1512 22.6225 15.3125 23.02 15.3125 23.4344V35.9344C15.3125 36.3488 15.1512 36.7462 14.864 37.0392C14.5768 37.3323 14.1874 37.4969 13.7812 37.4969H1.53125ZM22.9687 37.4969C22.5626 37.4969 22.1732 37.3323 21.886 37.0392C21.5988 36.7462 21.4375 36.3488 21.4375 35.9344V23.4344C21.4375 23.02 21.5988 22.6225 21.886 22.3295C22.1732 22.0365 22.5626 21.8719 22.9687 21.8719H35.2157C35.6218 21.8719 36.0113 22.0365 36.2984 22.3295C36.5856 22.6225 36.7469 23.02 36.7469 23.4344V35.9344C36.7469 36.3488 36.5856 36.7462 36.2984 37.0392C36.0113 37.3323 35.6218 37.4969 35.2157 37.4969H22.9687Z" fill="#BEA23C"/>
</svg>
